Coordinates
version=1
nRows=13
nColumns=40
inDegrees=yes

Units are S.I. units (second, meters, Newtons, ...)
Angles are in degrees.

endheader
time	pelvis_tilt	pelvis_list	pelvis_rotation	pelvis_tx	pelvis_ty	pelvis_tz	hip_flexion_r	hip_adduction_r	hip_rotation_r	knee_angle_r	knee_angle_r_beta	ankle_angle_r	subtalar_angle_r	mtp_angle_r	hip_flexion_l	hip_adduction_l	hip_rotation_l	knee_angle_l	knee_angle_l_beta	ankle_angle_l	subtalar_angle_l	mtp_angle_l	lumbar_extension	lumbar_bending	lumbar_rotation	arm_flex_r	arm_add_r	arm_rot_r	elbow_flex_r	pro_sup_r	wrist_flex_r	wrist_dev_r	arm_flex_l	arm_add_l	arm_rot_l	elbow_flex_l	pro_sup_l	wrist_flex_l	wrist_dev_l
     16.40000000	     -5.27615933	     -3.67650335	      4.27492004	      1.12350714	      0.91337665	      0.41990071	      0.61637823	     -3.13456665	    -14.55483598	     33.33009054	     33.33009054	     12.77432836	     -8.31984676	    -12.27282242	     30.46065060	     -4.51003819	     -3.47891313	     28.28382366	     28.28382366	      6.78565396	    -13.57186420	      3.76862645	     -6.86440444	      3.68029744	      3.45274844	     42.41750528	    -14.73948880	     -6.51412632	    105.64132044	     44.07913034	      0.00000000	      0.00000000	    -18.17129943	     -5.59071952	      5.78707103	     22.13168791	     45.28182176	      0.00000000	      0.00000000
     16.41114286	     -5.27592810	     -3.70866686	      3.99817469	      1.12342437	      0.91519777	      0.41765994	      2.37691471	     -3.58729910	    -13.71110513	     37.10858356	     37.10858356	     10.84820691	    -10.87120363	    -12.33713883	     29.62288590	     -4.60911752	     -3.91159506	     28.06013776	     28.06013776	      7.48435100	    -13.08036418	      3.42442161	     -6.94433163	      3.80941348	      3.78077130	     40.03260782	    -15.30448531	     -6.61974976	    107.73392433	     44.04797487	      0.00000000	      0.00000000	    -16.90017490	     -5.67592184	      5.63014659	     22.78344071	     45.35250039	      0.00000000	      0.00000000
     16.42228571	     -5.20107600	     -3.54900892	      3.67913107	      1.12326941	      0.91700391	      0.41550018	      4.16711881	     -4.42743893	    -13.34300910	     41.05201882	     41.05201882	      9.28807045	    -12.20734870	    -12.06472968	     28.61098448	     -4.51185940	     -4.44616346	     27.71298583	     27.71298583	      8.08658040	    -12.77837718	      3.14246519	     -7.05934004	      3.68452511	      3.38820601	     38.18623253	    -14.93310611	     -6.29382445	    107.87444431	     44.03494438	      0.00000000	      0.00000000	    -15.83101900	     -5.68871165	      5.60182371	     23.23925325	     45.38073006	      0.00000000	      0.00000000
     16.43342857	     -5.20050766	     -3.46502190	      3.35028566	      1.12288983	      0.91857875	      0.41361454	      6.16473048	     -5.05051791	    -12.76662481	     44.94296526	     44.94296526	      7.86513940	    -13.72234232	    -11.21734046	     27.68489333	     -4.48861140	     -4.94478380	     27.31879518	     27.31879518	      8.61296591	    -12.41805800	      2.81986547	     -7.09064376	      3.63345741	      3.09395470	     36.10036108	    -14.76617052	     -5.95641495	    108.07378751	     44.02017188	      0.00000000	      0.00000000	    -14.69417489	     -5.78146614	      5.50418250	     23.89646365	     45.42102998	      0.00000000	      0.00000000
     16.44457143	     -5.23181763	     -3.38271141	      2.95411288	      1.12240039	      0.91997720	      0.41191479	      8.26719366	     -5.59813379	    -12.11387620	     48.69255634	     48.69255634	      6.75725422	    -14.99290467	     -9.87885300	     26.78055884	     -4.47957506	     -5.50149902	     26.89576029	     26.89576029	      9.10606150	    -12.08604626	      2.45172245	     -7.08016155	      3.60162863	      2.90029987	     33.81162143	    -14.75834285	     -5.64192616	    108.19155791	     44.00917783	      0.00000000	      0.00000000	    -13.53091667	     -5.99878224	      5.33208930	     24.72401782	     45.47291636	      0.00000000	      0.00000000
     16.45571429	     -5.07945543	     -3.47149689	      2.61663225	      1.12181568	      0.92147991	      0.41056293	     10.34921832	     -5.87348675	    -11.54610066	     52.62244783	     52.62244783	      7.85445434	    -14.76895042	     -2.80308150	     25.75238215	     -4.67191876	     -5.97404376	     26.52291643	     26.52291643	      9.25638646	    -11.81083400	      1.31788716	     -7.42091348	      3.70340760	      3.36410073	     30.82473235	    -15.21396183	     -6.07451018	    109.52225635	     44.04405056	      0.00000000	      0.00000000	    -12.17703100	     -6.28415736	      4.61720991	     26.71948087	     45.62400115	      0.00000000	      0.00000000
     16.46685714	     -4.96532791	     -3.39840794	      2.25273932	      1.12111655	      0.92278892	      0.40913727	     12.25740005	     -6.37606258	    -11.15390830	     55.75842128	     55.75842128	      6.94008868	    -15.39763085	     -2.56304705	     24.77099861	     -4.63083303	     -6.35955282	     26.18806965	     26.18806965	      9.67823757	    -11.73546136	      1.16143652	     -7.58300429	      3.67363609	      2.90041008	     28.63333671	    -14.77990474	     -5.56861565	    108.64246885	     44.05251030	      0.00000000	      0.00000000	    -10.77190415	     -6.52050876	      4.54759903	     27.28160827	     45.65946391	      0.00000000	      0.00000000
     16.47800000	     -4.89671347	     -3.36055176	      1.87365892	      1.12027412	      0.92395807	      0.40787793	     14.25653058	     -6.73862530	    -10.68548298	     58.62523813	     58.62523813	      6.22419755	    -15.97020644	     -2.20414232	     23.84396689	     -4.62323086	     -6.71450618	     25.83315786	     25.83315786	     10.05827718	    -11.64852058	      0.99106524	     -7.72633717	      3.68276231	      2.57053031	     26.27237209	    -14.54865807	     -5.10346228	    107.59970381	     44.06657987	      0.00000000	      0.00000000	     -9.29526336	     -6.82687139	      4.41624521	     28.03696169	     45.70440828	      0.00000000	      0.00000000
     16.48914286	     -4.88086736	     -3.37956477	      1.45099670	      1.11933973	      0.92492261	      0.40681778	     16.47135977	     -6.94977235	    -10.13058919	     61.48705372	     61.48705372	      7.13824944	    -15.67318923	      2.22712419	     22.93528489	     -4.66609929	     -7.03926307	     25.34988323	     25.34988323	     10.07875007	    -11.77515854	      0.00090918	     -7.80815541	      3.72426286	      2.51687103	     23.75699649	    -14.68983364	     -5.09733196	    106.06741609	     44.18399755	      0.00000000	      0.00000000	     -8.11885715	     -7.22154360	      3.58764927	     30.10215150	     45.84437125	      0.00000000	      0.00000000
     16.50028571	     -4.80364681	     -3.35893122	      1.03128262	      1.11840006	      0.92591303	      0.40580536	     18.42794702	     -7.17443374	     -9.67903110	     63.61990666	     63.61990666	      6.67033702	    -15.94342412	      2.14162428	     22.01909515	     -4.67068917	     -7.39300147	     25.01565416	     25.01565416	     10.46937373	    -11.74723899	     -0.10429710	     -7.95919903	      3.77409101	      2.27165691	     21.29174534	    -14.57572588	     -4.63010068	    104.58329169	     44.21362931	      0.00000000	      0.00000000	     -6.51702906	     -7.61109622	      3.43273207	     30.84865508	     45.89017531	      0.00000000	      0.00000000
     16.51142857	     -4.65459108	     -3.39294300	      0.63746834	      1.11744647	      0.92692127	      0.40489794	     20.24484957	     -7.31317922	     -9.32922631	     65.32686814	     65.32686814	      6.30027932	    -16.07668116	      2.05033300	     21.07719868	     -4.72297381	     -7.65430313	     24.75425157	     24.75425157	     10.83937592	    -11.75816099	     -0.21977047	     -8.19837736	      3.87224744	      2.04517638	     18.82266487	    -14.38223276	     -4.20800093	    102.92521700	     44.24784357	      0.00000000	      0.00000000	     -4.74545940	     -8.06141973	      3.26404534	     31.70878655	     45.93985412	      0.00000000	      0.00000000
     16.52257143	     -4.57916125	     -3.39828481	      0.19817475	      1.11641933	      0.92780491	      0.40401501	     22.12992126	     -7.39020456	     -8.87483668	     66.66632660	     66.66632660	      6.10726595	    -16.10225280	      2.09224342	     20.12533152	     -4.71029945	     -7.92500355	     24.31061651	     24.31061651	     11.05415103	    -11.95111324	     -0.60525694	     -8.30843833	      3.94902470	      2.06218227	     16.60307552	    -14.43800554	     -4.45813426	     99.48881168	     44.38762928	      0.00000000	      0.00000000	     -3.08449089	     -8.49509293	      2.89736999	     33.04257389	     46.00872707	      0.00000000	      0.00000000
     16.53371429	     -4.45799139	     -3.42705621	     -0.21134412	      1.11543510	      0.92868221	      0.40326947	     23.88105156	     -7.42898846	     -8.53622925	     67.55984327	     67.55984327	      5.83835966	    -16.08729919	      1.96222534	     19.15816885	     -4.73744195	     -8.23733103	     23.93842414	     23.93842414	     11.38409316	    -11.97870330	     -0.76954759	     -8.51549133	      4.07509843	      2.06367740	     14.19886350	    -14.55483586	     -4.22115152	     96.95108362	     44.46165066	      0.00000000	      0.00000000	     -1.19538210	     -8.98339648	      2.68173120	     34.04703145	     46.06327262	      0.00000000	      0.00000000
